<svg width="41" height="41" viewBox="0 0 41 41" fill="none" xmlns="http://www.w3.org/2000/svg">
<g clip-path="url(#clip0_384_1652)">
<path d="M25.9902 37.7054H15.0081C14.8068 37.7054 14.642 37.8701 14.642 38.0714V39.5357C14.642 40.3456 15.2964 41 16.1063 41H24.892C25.702 41 26.3563 40.3456 26.3563 39.5357V38.0714C26.3563 37.8701 26.1916 37.7054 25.9902 37.7054ZM20.4992 0C12.2122 0 5.49023 6.72199 5.49023 15.0089C5.49023 20.5641 8.51032 25.4145 12.9947 28.009V33.3125C12.9947 34.1224 13.6491 34.7768 14.459 34.7768H26.5393C27.3493 34.7768 28.0036 34.1224 28.0036 33.3125V28.009C32.488 25.4145 35.5081 20.5641 35.5081 15.0089C35.5081 6.72199 28.7861 0 20.4992 0ZM26.3517 25.1583L24.709 26.11V31.4821H16.2893V26.11L14.6466 25.1583C11.0454 23.0762 8.78488 19.2416 8.78488 15.0089C8.78488 8.53862 14.0289 3.29464 20.4992 3.29464C26.9695 3.29464 32.2135 8.53862 32.2135 15.0089C32.2135 19.2416 29.953 23.0762 26.3517 25.1583Z" fill="#2D2D2D"/>
</g>
<defs>
<clipPath id="clip0_384_1652">
<rect width="41" height="41" fill="white"/>
</clipPath>
</defs>
</svg>
