<svg width="36" height="36" viewBox="0 0 36 36" fill="none" xmlns="http://www.w3.org/2000/svg">
<path d="M33.0229 17.1367C33.1676 16.6546 33.2399 16.1563 33.2399 15.6501C33.2399 14.513 32.8662 13.4202 32.1912 12.5282C32.3359 12.0461 32.4082 11.5479 32.4082 11.0416C32.4082 9.90455 32.0345 8.8117 31.3595 7.91973C31.5042 7.43759 31.5765 6.93937 31.5765 6.43312C31.5765 4.35991 30.343 2.49161 28.4305 1.67598C28.0943 1.53105 27.7318 1.45718 27.3658 1.45902H3.21443C2.50326 1.45902 1.92871 2.03357 1.92871 2.74473V17.3697C1.92871 18.0809 2.50326 18.6554 3.21443 18.6554H8.40951L11.8568 31.1429C12.4113 33.1559 14.2595 34.5621 16.3488 34.5621C17.5421 34.5621 18.6551 34.088 19.4787 33.2202C20.3024 32.3563 20.7242 31.2233 20.664 30.03L20.4229 25.0921H30.0617C30.5479 25.0921 31.022 24.9635 31.4399 24.7184C33.0631 23.7742 34.0716 22.0626 34.0716 20.2586C34.0716 19.1215 33.6979 18.0287 33.0229 17.1367V17.1367ZM4.82157 15.7586V4.34786H8.07603V15.7586H4.82157ZM30.0216 22.2032H17.3894L17.7751 30.1746C17.7992 30.6528 17.5863 31.1028 17.1885 31.4001C16.9434 31.5809 16.6421 31.6733 16.3408 31.6693C15.9558 31.6656 15.5824 31.537 15.2767 31.303C14.9709 31.069 14.7494 30.7422 14.6452 30.3715L10.6475 15.8871V4.34786H27.3376C27.7393 4.52784 28.0803 4.82002 28.3198 5.18924C28.5593 5.55846 28.687 5.98901 28.6876 6.42911C28.6876 6.81884 28.5952 7.18848 28.4104 7.52598L27.8519 8.54652L28.7318 9.30991C28.9795 9.52441 29.178 9.78977 29.3139 10.0879C29.4498 10.386 29.5199 10.7099 29.5193 11.0376C29.5193 11.4273 29.4269 11.797 29.2421 12.1345L28.6836 13.155L29.5635 13.9184C29.8112 14.1329 30.0097 14.3982 30.1456 14.6964C30.2815 14.9945 30.3516 15.3184 30.351 15.6461C30.351 16.0358 30.2586 16.4054 30.0738 16.7429L29.5113 17.7675L30.3912 18.5309C30.6389 18.7454 30.8374 19.0107 30.9733 19.3089C31.1092 19.607 31.1793 19.9309 31.1787 20.2586C31.1787 21.026 30.7367 21.7653 30.0216 22.2032V22.2032Z" fill="#2D2D2D"/>
</svg>
