<svg width="32" height="32" viewBox="0 0 32 32" fill="none" xmlns="http://www.w3.org/2000/svg">
<path d="M16 0.25C7.30234 0.25 0.25 7.30234 0.25 16C0.25 24.6977 7.30234 31.75 16 31.75C24.6977 31.75 31.75 24.6977 31.75 16C31.75 7.30234 24.6977 0.25 16 0.25ZM21.8711 22.525C20.4438 23.8398 18.4961 24.6133 16.1723 24.6133C12.8078 24.6133 9.89688 22.6832 8.48008 19.8707C7.89648 18.707 7.5625 17.3922 7.5625 16C7.5625 14.6078 7.89648 13.293 8.48008 12.1293C9.89688 9.31328 12.8078 7.3832 16.1723 7.3832C18.4926 7.3832 20.4402 8.2375 21.9344 9.62617L19.4664 12.0977C18.5734 11.2434 17.4379 10.8109 16.1758 10.8109C13.9328 10.8109 12.0344 12.3262 11.3559 14.3617C11.1836 14.8785 11.0852 15.4305 11.0852 16C11.0852 16.5695 11.1836 17.1215 11.3559 17.6383C12.0344 19.6738 13.9328 21.1891 16.1723 21.1891C17.3324 21.1891 18.3168 20.8832 19.0867 20.3664C20.0008 19.7547 20.6055 18.8441 20.8059 17.7648H16.1723V14.432H24.2828C24.3848 14.998 24.4375 15.5852 24.4375 16.1934C24.4375 18.8195 23.4988 21.0238 21.8711 22.525Z" fill="white"/>
</svg>
