<svg width="27" height="27" viewBox="0 0 27 27" fill="none" xmlns="http://www.w3.org/2000/svg">
<path d="M13.5002 9.2044C11.1347 9.2044 9.20435 11.1348 9.20435 13.5002C9.20435 15.8656 11.1347 17.796 13.5002 17.796C15.8656 17.796 17.796 15.8656 17.796 13.5002C17.796 11.1348 15.8656 9.2044 13.5002 9.2044ZM26.3843 13.5002C26.3843 11.7213 26.4004 9.9585 26.3005 8.18282C26.2006 6.12032 25.7301 4.28985 24.2219 2.78165C22.7105 1.27022 20.8833 0.802936 18.8208 0.703034C17.0419 0.603131 15.2791 0.619245 13.5034 0.619245C11.7245 0.619245 9.96168 0.603131 8.18599 0.703034C6.12349 0.802936 4.29302 1.27344 2.78482 2.78165C1.2734 4.29307 0.80611 6.12032 0.706208 8.18282C0.606305 9.96172 0.622419 11.7245 0.622419 13.5002C0.622419 15.2759 0.606305 17.0419 0.706208 18.8176C0.80611 20.8801 1.27662 22.7105 2.78482 24.2188C4.29625 25.7302 6.12349 26.1975 8.18599 26.2974C9.9649 26.3973 11.7277 26.3812 13.5034 26.3812C15.2823 26.3812 17.0451 26.3973 18.8208 26.2974C20.8833 26.1975 22.7137 25.727 24.2219 24.2188C25.7334 22.7073 26.2006 20.8801 26.3005 18.8176C26.4037 17.0419 26.3843 15.2791 26.3843 13.5002V13.5002ZM13.5002 20.1099C9.84244 20.1099 6.89048 17.1579 6.89048 13.5002C6.89048 9.84249 9.84244 6.89053 13.5002 6.89053C17.1579 6.89053 20.1098 9.84249 20.1098 13.5002C20.1098 17.1579 17.1579 20.1099 13.5002 20.1099ZM20.3805 8.16348C19.5265 8.16348 18.8369 7.47383 18.8369 6.61983C18.8369 5.76583 19.5265 5.07618 20.3805 5.07618C21.2345 5.07618 21.9242 5.76583 21.9242 6.61983C21.9244 6.82262 21.8847 7.02346 21.8072 7.21086C21.7297 7.39826 21.616 7.56853 21.4726 7.71192C21.3292 7.85532 21.159 7.96901 20.9716 8.0465C20.7842 8.12398 20.5833 8.16374 20.3805 8.16348V8.16348Z" fill="white"/>
</svg>
