<svg width="34" height="34" viewBox="0 0 34 34" fill="none" xmlns="http://www.w3.org/2000/svg">
<path d="M32.0229 17.8709C32.6979 16.9789 33.0716 15.8861 33.0716 14.749C33.0716 12.945 32.0631 11.2374 30.4399 10.2852C30.022 10.0401 29.5462 9.91108 29.0617 9.91153H19.4269L19.668 4.97358C19.7242 3.78028 19.3024 2.64724 18.4827 1.7834C18.0805 1.35762 17.5952 1.01885 17.0569 0.788037C16.5185 0.55722 15.9386 0.439257 15.3528 0.441436C13.2635 0.441436 11.4153 1.84769 10.8609 3.86063L7.40951 16.3562H2.21443C1.50326 16.3562 0.928711 16.9307 0.928711 17.6419V32.2669C0.928711 32.978 1.50326 33.5526 2.21443 33.5526H26.3738C26.7434 33.5526 27.1051 33.4803 27.4385 33.3356C29.351 32.52 30.5845 30.6517 30.5845 28.5785C30.5845 28.0722 30.5122 27.574 30.3676 27.0919C31.0426 26.1999 31.4162 25.1071 31.4162 23.97C31.4162 23.4638 31.3439 22.9655 31.1993 22.4834C31.8743 21.5914 32.2479 20.4986 32.2479 19.3615C32.2399 18.8553 32.1676 18.353 32.0229 17.8709V17.8709ZM3.82157 30.6597V19.249H7.07603V30.6597H3.82157ZM29.3912 16.4767L28.5113 17.2401L29.0698 18.2606C29.2538 18.5968 29.3492 18.9743 29.347 19.3575C29.347 20.0205 29.0577 20.6513 28.5595 21.0852L27.6796 21.8486L28.2381 22.8691C28.4221 23.2053 28.5175 23.5828 28.5153 23.966C28.5153 24.6289 28.226 25.2597 27.7278 25.6937L26.8479 26.4571L27.4064 27.4776C27.5904 27.8138 27.6858 28.1912 27.6836 28.5745C27.6836 29.4745 27.1533 30.2861 26.3336 30.6557H9.64746V19.1205L13.6452 4.63608C13.7483 4.26483 13.9696 3.9373 14.2756 3.70312C14.5815 3.46894 14.9555 3.34086 15.3408 3.33831C15.6461 3.33831 15.9475 3.4267 16.1885 3.60751C16.5863 3.90483 16.7992 4.35483 16.7751 4.83295L16.3894 12.8044H29.0216C29.7367 13.2423 30.1787 13.9816 30.1787 14.749C30.1787 15.412 29.8894 16.0388 29.3912 16.4767Z" fill="#2D2D2D"/>
</svg>
