<svg width="27" height="27" viewBox="0 0 27 27" fill="none" xmlns="http://www.w3.org/2000/svg">
<path d="M25.3594 0.609375H1.64062C1.07021 0.609375 0.609375 1.07021 0.609375 1.64062V25.3594C0.609375 25.9298 1.07021 26.3906 1.64062 26.3906H25.3594C25.9298 26.3906 26.3906 25.9298 26.3906 25.3594V1.64062C26.3906 1.07021 25.9298 0.609375 25.3594 0.609375ZM8.25674 22.5782H4.43145V10.2741H8.25674V22.5782ZM6.3457 8.59189C5.90718 8.59189 5.47851 8.46186 5.1139 8.21823C4.74928 7.9746 4.4651 7.62833 4.29729 7.22319C4.12948 6.81805 4.08557 6.37225 4.17112 5.94216C4.25667 5.51206 4.46784 5.117 4.77791 4.80692C5.08799 4.49684 5.48306 4.28567 5.91315 4.20012C6.34324 4.11457 6.78905 4.15848 7.19418 4.32629C7.59932 4.49411 7.9456 4.77829 8.18923 5.1429C8.43285 5.50752 8.56289 5.93619 8.56289 6.37471C8.55967 7.59932 7.56709 8.59189 6.3457 8.59189ZM22.5782 22.5782H18.7562V16.5938C18.7562 15.1661 18.7304 13.3324 16.7678 13.3324C14.7794 13.3324 14.4732 14.8857 14.4732 16.4906V22.5782H10.6544V10.2741H14.3218V11.9563H14.3733C14.8825 10.9896 16.1297 9.96797 17.9924 9.96797C21.866 9.96797 22.5782 12.5171 22.5782 15.83V22.5782V22.5782Z" fill="white"/>
</svg>
