<svg width="37" height="37" viewBox="0 0 37 37" fill="none" xmlns="http://www.w3.org/2000/svg">
<g clip-path="url(#clip0_384_1651)">
<path d="M16.5717 18.5C16.5717 19.0115 16.7748 19.502 17.1365 19.8637C17.4982 20.2254 17.9887 20.4286 18.5002 20.4286C19.0117 20.4286 19.5023 20.2254 19.8639 19.8637C20.2256 19.502 20.4288 19.0115 20.4288 18.5C20.4288 17.9885 20.2256 17.498 19.8639 17.1363C19.5023 16.7746 19.0117 16.5714 18.5002 16.5714C17.9887 16.5714 17.4982 16.7746 17.1365 17.1363C16.7748 17.498 16.5717 17.9885 16.5717 18.5ZM24.6074 18.5C24.6074 19.0115 24.8106 19.502 25.1722 19.8637C25.5339 20.2254 26.0245 20.4286 26.5359 20.4286C27.0474 20.4286 27.538 20.2254 27.8996 19.8637C28.2613 19.502 28.4645 19.0115 28.4645 18.5C28.4645 17.9885 28.2613 17.498 27.8996 17.1363C27.538 16.7746 27.0474 16.5714 26.5359 16.5714C26.0245 16.5714 25.5339 16.7746 25.1722 17.1363C24.8106 17.498 24.6074 17.9885 24.6074 18.5ZM8.53594 18.5C8.53594 19.0115 8.73913 19.502 9.10081 19.8637C9.46249 20.2254 9.95303 20.4286 10.4645 20.4286C10.976 20.4286 11.4665 20.2254 11.8282 19.8637C12.1899 19.502 12.3931 19.0115 12.3931 18.5C12.3931 17.9885 12.1899 17.498 11.8282 17.1363C11.4665 16.7746 10.976 16.5714 10.4645 16.5714C9.95303 16.5714 9.46249 16.7746 9.10081 17.1363C8.73913 17.498 8.53594 17.9885 8.53594 18.5ZM35.102 11.525C34.194 9.36741 32.8922 7.4308 31.2328 5.76741C29.5851 4.11365 27.6289 2.79911 25.4752 1.89821C23.2654 0.970089 20.919 0.5 18.5002 0.5H18.4199C15.9851 0.512054 13.6266 0.994196 11.4087 1.94241C9.27345 2.85254 7.33566 4.16942 5.70335 5.81964C4.06005 7.47902 2.77032 9.40759 1.87835 11.5571C0.954246 13.783 0.488174 16.1496 0.500228 18.5844C0.513862 21.3747 1.17399 24.1238 2.4288 26.6161V32.7232C2.4288 33.2134 2.62352 33.6835 2.97013 34.0301C3.31674 34.3767 3.78684 34.5714 4.27701 34.5714H10.3882C12.8804 35.8262 15.6296 36.4864 18.4199 36.5H18.5042C20.9109 36.5 23.2453 36.0339 25.4431 35.1219C27.5859 34.2317 29.5347 32.9325 31.1806 31.2969C32.84 29.6536 34.1458 27.733 35.0578 25.5915C36.006 23.3737 36.4882 21.0152 36.5002 18.5804C36.5123 16.1335 36.0382 13.7589 35.102 11.525ZM29.031 29.1232C26.2145 31.9116 22.4779 33.4464 18.5002 33.4464H18.4319C16.0092 33.4344 13.6025 32.8317 11.477 31.6987L11.1395 31.5179H5.48237V25.8607L5.30157 25.5232C4.16853 23.3978 3.56585 20.9911 3.5538 18.5683C3.53773 14.5625 5.06853 10.8018 7.87701 7.9692C10.6815 5.13661 14.4301 3.56964 18.4359 3.55357H18.5042C20.5132 3.55357 22.4618 3.9433 24.298 4.71473C26.09 5.46607 27.6971 6.54687 29.0792 7.92902C30.4574 9.30714 31.5422 10.9183 32.2935 12.7103C33.073 14.5665 33.4627 16.5353 33.4547 18.5683C33.4306 22.5701 31.8596 26.3188 29.031 29.1232Z" fill="black" fill-opacity="0.85"/>
</g>
<defs>
<clipPath id="clip0_384_1651">
<rect width="36" height="36" fill="white" transform="translate(0.5 0.5)"/>
</clipPath>
</defs>
</svg>
