<svg width="30" height="30" viewBox="0 0 30 30" fill="none" xmlns="http://www.w3.org/2000/svg">
<path d="M28.1343 5.09297L24.3902 1.35234C24.1261 1.08707 23.8121 0.876588 23.4664 0.732998C23.1207 0.589407 22.7501 0.515535 22.3757 0.515625C21.6128 0.515625 20.8956 0.814453 20.3578 1.35234L16.3288 5.38125C16.0636 5.64537 15.8531 5.95929 15.7095 6.305C15.5659 6.6507 15.492 7.02137 15.4921 7.3957C15.4921 8.15859 15.791 8.87578 16.3288 9.41367L19.2749 12.3598C18.5853 13.8798 17.6265 15.2626 16.4449 16.4414C15.2661 17.626 13.8835 18.5882 12.3632 19.282L9.41713 16.3359C9.15301 16.0707 8.83909 15.8602 8.49338 15.7166C8.14768 15.573 7.77701 15.4991 7.40268 15.4992C6.63978 15.4992 5.9226 15.798 5.38471 16.3359L1.35228 20.3613C1.08668 20.6259 0.876022 20.9404 0.732425 21.2868C0.588828 21.6331 0.515128 22.0044 0.515566 22.3793C0.515566 23.1422 0.814394 23.8594 1.35228 24.3973L5.08939 28.1344C5.94721 28.9957 7.13197 29.4844 8.34838 29.4844C8.60502 29.4844 8.85111 29.4633 9.09369 29.4211C13.8328 28.6406 18.5331 26.1199 22.3265 22.3301C26.1163 18.5438 28.6335 13.8469 29.4245 9.09375C29.6636 7.6418 29.182 6.14766 28.1343 5.09297Z" fill="white"/>
</svg>
