<svg width="30" height="21" viewBox="0 0 30 21" fill="none" xmlns="http://www.w3.org/2000/svg">
<path d="M29.2541 3.54229C29.0847 2.9301 28.7527 2.37183 28.2912 1.92334C27.8297 1.47485 27.2549 1.15186 26.6244 0.986719C24.3035 0.380859 15 0.380859 15 0.380859C15 0.380859 5.69648 0.380859 3.37559 0.983496C2.74479 1.14811 2.16973 1.47091 1.70814 1.91948C1.24656 2.36806 0.914701 2.92662 0.745898 3.53906C0.125 5.79492 0.125 10.5 0.125 10.5C0.125 10.5 0.125 15.2051 0.745898 17.4577C1.08789 18.7017 2.09727 19.6813 3.37559 20.0133C5.69648 20.6191 15 20.6191 15 20.6191C15 20.6191 24.3035 20.6191 26.6244 20.0133C27.9061 19.6813 28.9121 18.7017 29.2541 17.4577C29.875 15.2051 29.875 10.5 29.875 10.5C29.875 10.5 29.875 5.79492 29.2541 3.54229ZM12.0449 14.8184V6.18164L19.748 10.4678L12.0449 14.8184Z" fill="white"/>
</svg>
